<svg width="30" height="31" viewBox="0 0 30 31" fill="none" xmlns="http://www.w3.org/2000/svg">
<path d="M1.62857 8.5405C2.90206 5.97253 4.85567 3.81379 7.27107 2.30558C9.68647 0.797361 12.4685 -0.000904531 15.3061 7.69158e-07C19.4311 7.69158e-07 22.8964 1.53605 25.5459 4.03775L21.1577 8.48315C19.5704 6.9471 17.5531 6.16435 15.3061 6.16435C11.3189 6.16435 7.94388 8.89235 6.74235 12.555C6.43623 13.485 6.26174 14.477 6.26174 15.5C6.26174 16.523 6.43623 17.515 6.74235 18.445C7.94541 22.1092 11.3189 24.8356 15.3061 24.8356C17.3648 24.8356 19.1173 24.2854 20.4888 23.3554C21.2838 22.8253 21.9645 22.1374 22.4896 21.3334C23.0147 20.5294 23.3734 19.6259 23.5439 18.6775H15.3061V12.6821H29.7214C29.902 13.6958 30 14.7529 30 15.8519C30 20.5731 28.3316 24.5473 25.4357 27.2443C22.9041 29.6127 19.4388 31 15.3061 31C13.2959 31.0008 11.3052 30.6004 9.44777 29.8218C7.59038 29.0431 5.90273 27.9014 4.48127 26.462C3.0598 25.0225 1.93239 23.3135 1.16347 21.4326C0.394552 19.5516 -0.000803359 17.5357 1.22558e-06 15.5C1.22558e-06 12.9983 0.590817 10.633 1.62857 8.5405Z" fill="white"/>
</svg>
